<svg xmlns="http://www.w3.org/2000/svg" xmlns:xlink="http://www.w3.org/1999/xlink" viewBox="0 0 90 90"><defs><clipPath id="a"><rect x="44" width="24.5" height="38" style="fill:none"/></clipPath><linearGradient id="b" x1="33.03" y1="1334.26" x2="52.48" y2="1358.58" gradientTransform="matrix(-1, 0, 0, 1, 90, -1275.23)" gradientUnits="userSpaceOnUse"><stop offset="0" stop-color="#4c4c4c"/><stop offset="1" stop-color="#969696"/></linearGradient><linearGradient id="c" x1="51.67" y1="1336.41" x2="33.67" y2="1359.41" gradientTransform="matrix(-1, 0, 0, 1, 90, -1275.23)" gradientUnits="userSpaceOnUse"><stop offset="0" stop-color="#fafbfc" stop-opacity="0.8"/><stop offset="1" stop-color="#fafbfc"/></linearGradient><radialGradient id="d" cx="-3437.89" cy="52" r="11" gradientTransform="matrix(1, 0, 0, -1, 3474.89, 136)" gradientUnits="userSpaceOnUse"><stop offset="0" stop-color="#010101" stop-opacity="0.2"/><stop offset="1" stop-color="#010101" stop-opacity="0"/></radialGradient><linearGradient id="e" x1="39" y1="1339.23" x2="39" y2="1351.23" gradientTransform="matrix(-1, 0, 0, 1, 90, -1275.23)" gradientUnits="userSpaceOnUse"><stop offset="0" stop-color="#2a84c6"/><stop offset="1" stop-color="#3fc7f4"/></linearGradient><linearGradient id="f" x1="43" y1="1339.23" x2="43" y2="1351.23" gradientTransform="matrix(-1, 0, 0, 1, 90, -1275.23)" gradientUnits="userSpaceOnUse"><stop offset="0" stop-color="#e65827"/><stop offset="1" stop-color="#f89c49"/></linearGradient><linearGradient id="g" x1="47" y1="1339.23" x2="47" y2="1351.23" gradientTransform="matrix(-1, 0, 0, 1, 90, -1275.23)" gradientUnits="userSpaceOnUse"><stop offset="0" stop-color="#e5b442"/><stop offset="1" stop-color="#f9ef61"/></linearGradient><linearGradient id="h" x1="51" y1="1339.23" x2="51" y2="1351.23" gradientTransform="matrix(-1, 0, 0, 1, 90, -1275.23)" gradientUnits="userSpaceOnUse"><stop offset="0" stop-color="#49b749"/><stop offset="1" stop-color="#92c83e"/></linearGradient><clipPath id="i"><rect x="25.2" width="19.25" height="38" transform="translate(69.65 38) rotate(180)" style="fill:none"/></clipPath></defs><g style="clip-path:url(#a)"><path d="M36,0a4,4,0,0,0-4,4V28a4,4,0,0,0,4,4H54a4,4,0,0,0,4-4V11L47,0Z" style="fill:#2a84c6;fill-rule:evenodd"/><path d="M37.5,13h6a.5.5,0,0,1,.5.5h0a.5.5,0,0,1-.5.5h-6a.5.5,0,0,1-.5-.5h0A.5.5,0,0,1,37.5,13Z" style="fill:#fafbfc;fill-rule:evenodd"/><path d="M37.5,15h6a.5.5,0,0,1,.5.5h0a.5.5,0,0,1-.5.5h-6a.5.5,0,0,1-.5-.5h0A.5.5,0,0,1,37.5,15Z" style="fill:#fafbfc;fill-rule:evenodd"/><path d="M37.5,17h6a.5.5,0,0,1,.5.5h0a.5.5,0,0,1-.5.5h-6a.5.5,0,0,1-.5-.5h0A.5.5,0,0,1,37.5,17Z" style="fill:#fafbfc;fill-rule:evenodd"/><path d="M37.5,20h15a.5.5,0,0,1,.5.5h0a.5.5,0,0,1-.5.5h-15a.5.5,0,0,1-.5-.5h0A.5.5,0,0,1,37.5,20Z" style="fill:#fafbfc;fill-rule:evenodd"/><path d="M37.5,22h15a.5.5,0,0,1,.5.5h0a.5.5,0,0,1-.5.5h-15a.5.5,0,0,1-.5-.5h0A.5.5,0,0,1,37.5,22Z" style="fill:#fafbfc;fill-rule:evenodd"/><path d="M37.5,24h6a.5.5,0,0,1,.5.5h0a.5.5,0,0,1-.5.5h-6a.5.5,0,0,1-.5-.5h0A.5.5,0,0,1,37.5,24Z" style="fill:#fafbfc;fill-rule:evenodd"/><path d="M47,13a1,1,0,0,0-1,1v3a1,1,0,0,0,1,1h5a1,1,0,0,0,1-1V14a1,1,0,0,0-1-1Zm4.5,1a.5.5,0,1,1-.5.5A.5.5,0,0,1,51.5,14Zm-3.16.53a.59.59,0,0,1,.37.18L51,17H47L47.68,15a.63.63,0,0,1,.66-.42Z" style="fill:#a4ddee;fill-rule:evenodd"/><path d="M47,0,58,11H47Z" style="fill:#a4ddee;fill-rule:evenodd"/></g><path d="M70.46,6.82a4,4,0,0,0-5.66,0l-17,17a4,4,0,0,0,0,5.65L60.56,42.17a4,4,0,0,0,5.65,0l12-12V14.59Z" style="fill:#e5b442;fill-rule:evenodd"/><circle cx="61.97" cy="22.37" r="4" style="fill:#fafbfc"/><path d="M67.63,25.2a1,1,0,0,0-1.42,0l-3.53,3.54a1,1,0,0,0,0,1.41l3.53,3.54a1,1,0,0,0,1.42,0l3.53-3.54a1,1,0,0,0,0-1.41Zm-.71.71,3.54,3.53L66.92,33l-3.54-3.54Z" style="fill:#fafbfc;fill-rule:evenodd"/><path d="M64.19,24.4,62,32.51a.56.56,0,0,1-.7.4.46.46,0,0,1-.26-.15l-5.94-5.93a.59.59,0,0,1,0-.82.76.76,0,0,1,.26-.15l8.11-2.17a.58.58,0,0,1,.71.41.76.76,0,0,1,0,.3Z" style="fill:#f8e186;fill-rule:evenodd"/><path d="M78.23,14.59V30.15l-7.77-7.78Z" style="fill:#f8e186;fill-rule:evenodd"/><path d="M90,36a4,4,0,0,0-4-4H62a4,4,0,0,0-4,4V54a4,4,0,0,0,4,4H79L90,47Z" style="fill:#e65827;fill-rule:evenodd"/><path d="M77,37.5v15a.5.5,0,0,1-.5.5h0a.5.5,0,0,1-.5-.5v-15a.5.5,0,0,1,.5-.5h0A.5.5,0,0,1,77,37.5Z" style="fill:#fafbfc;fill-rule:evenodd"/><path d="M75,39.5v11a.5.5,0,0,1-.5.5h0a.5.5,0,0,1-.5-.5v-11a.5.5,0,0,1,.5-.5h0A.5.5,0,0,1,75,39.5Z" style="fill:#fafbfc;fill-rule:evenodd"/><circle cx="70.5" cy="37.5" r="0.5" style="fill:#fafbfc"/><circle cx="68.5" cy="37.5" r="0.5" style="fill:#fafbfc"/><circle cx="66.5" cy="37.5" r="0.5" style="fill:#fafbfc"/><rect x="70" y="39" width="1" height="5" style="fill:#fafbfc"/><path d="M69,39.5v4a.5.5,0,0,1-.5.5h0a.5.5,0,0,1-.5-.5v-4a.5.5,0,0,1,.5-.5h0A.5.5,0,0,1,69,39.5Z" style="fill:#fafbfc;fill-rule:evenodd"/><path d="M67,39.5v4a.5.5,0,0,1-.5.5h0a.5.5,0,0,1-.5-.5v-4a.5.5,0,0,1,.5-.5h0A.5.5,0,0,1,67,39.5Z" style="fill:#fafbfc;fill-rule:evenodd"/><path d="M71,46a1,1,0,0,0-1-1H66a1,1,0,0,0-1,1v6a1,1,0,0,0,1,1h4a1,1,0,0,0,1-1Zm-1,5.42a.46.46,0,0,1-.14.43.48.48,0,0,1-.7,0L66.79,49.5l1-1-1.64-1.65a.49.49,0,0,1,.7-.7l2.36,2.35-1,1,1.64,1.65A.42.42,0,0,1,70,51.42Z" style="fill:#fccfb6;fill-rule:evenodd"/><path d="M90,47,79,58V47Z" style="fill:#fccfb6;fill-rule:evenodd"/><path d="M83.18,70.46a4,4,0,0,0,0-5.66l-17-17a4,4,0,0,0-5.65,0L47.83,60.56a4,4,0,0,0,0,5.65l12,12H75.41Z" style="fill:#6f6f6f;fill-rule:evenodd"/><path d="M75.41,78.23l-7.78-7.77-7.78,7.77Z" style="fill:#b0b0b0;fill-rule:evenodd"/><path d="M71.52,63.74a.51.51,0,0,0,0-.71L68.69,60.2a.51.51,0,0,0-.71,0L65.15,63a.51.51,0,0,0,0,.71l.56.56H71ZM70,65.3H66.71L68,66.57a.51.51,0,0,0,.71,0Z" style="fill:#fafbfc;fill-rule:evenodd"/><path d="M66.57,58.79a.51.51,0,0,0,0-.71l-2.83-2.83a.51.51,0,0,0-.71,0L60.2,58.08a.51.51,0,0,0,0,.71l.56.56H66ZM65,60.35H61.76L63,61.62a.51.51,0,0,0,.71,0Z" style="fill:#fafbfc;fill-rule:evenodd"/><path d="M66.57,68.69a.51.51,0,0,0,0-.71l-2.83-2.83a.51.51,0,0,0-.71,0L60.2,68a.51.51,0,0,0,0,.71l.56.56H66ZM65,70.25H61.76L63,71.52a.51.51,0,0,0,.71,0Z" style="fill:#fafbfc;fill-rule:evenodd"/><path d="M61.62,63.74a.51.51,0,0,0,0-.71L58.79,60.2a.51.51,0,0,0-.71,0L55.25,63a.51.51,0,0,0,0,.71l.56.56h5.25ZM60.06,65.3H56.81l1.27,1.27a.51.51,0,0,0,.71,0Z" style="fill:#fafbfc;fill-rule:evenodd"/><path d="M54,90a4,4,0,0,0,4-4V62a4,4,0,0,0-4-4H36a4,4,0,0,0-4,4V78L44,90Z" style="fill-rule:evenodd;fill:url(#b)"/><path d="M58,63V62a4,4,0,0,0-4-4H36a4,4,0,0,0-4,4v1a4,4,0,0,1,4-4H54A4,4,0,0,1,58,63Z" style="fill:#010101;fill-opacity:0.19862000644207;fill-rule:evenodd"/><path d="M54,87a1,1,0,0,0,1-1V63a1,1,0,0,0-1-1H36a1,1,0,0,0-1,1V76.75L45.25,87Z" style="fill-rule:evenodd;fill:url(#c)"/><path d="M47.58,87A11.32,11.32,0,0,0,48,84,11,11,0,0,0,37,73a11.22,11.22,0,0,0-2,.21v3.54L45.25,87Z" style="fill-rule:evenodd;fill:url(#d)"/><path d="M45.25,87,35,76.75H45.25Z" style="fill:#fafbfc;fill-rule:evenodd"/><rect x="49" y="64" width="4" height="9" style="fill:url(#e)"/><rect x="45" y="64" width="4" height="12" style="fill:url(#f)"/><rect x="41" y="64" width="4" height="6" style="fill:url(#g)"/><rect x="37" y="64" width="4" height="9" style="fill:url(#h)"/><path d="M19.54,83.18a4,4,0,0,0,5.66,0l17-17a4,4,0,0,0,0-5.65L29.44,47.83a4,4,0,0,0-5.65,0l-12,12V75.41Z" style="fill:#df2d57;fill-rule:evenodd"/><path d="M22.94,68.2l7.84-2.61-1.2,3.59.92.92a.5.5,0,0,0,.71,0,.48.48,0,0,0,0-.7l-.49-.49L32.36,64l-9.14,3-5.44-5.44a.5.5,0,0,0-.71,0,.48.48,0,0,0,0,.7Z" style="fill:#fafbfc;fill-rule:evenodd"/><path d="M35.45,65.15,33.33,63a.51.51,0,0,1,0-.71h0a.51.51,0,0,1,.71,0l2.12,2.13a.48.48,0,0,1,0,.7h0A.5.5,0,0,1,35.45,65.15Z" style="fill:#fafbfc;fill-rule:evenodd"/><path d="M31.21,60.91l-2.12-2.12a.5.5,0,0,1,0-.71h0a.51.51,0,0,1,.71,0l2.12,2.12a.51.51,0,0,1,0,.71h0A.5.5,0,0,1,31.21,60.91Z" style="fill:#fafbfc;fill-rule:evenodd"/><path d="M27,56.67l-2.12-2.12a.5.5,0,0,1,0-.71h0a.48.48,0,0,1,.7,0L27.68,56a.51.51,0,0,1,0,.71h0A.51.51,0,0,1,27,56.67Z" style="fill:#fafbfc;fill-rule:evenodd"/><path d="M23.16,64.17a1,1,0,0,0,.63.21,1,1,0,0,0,1-1V61.56h1.83a1,1,0,1,0,0-2H24.79V57.73a1,1,0,0,0-2,0v1.83H21a1,1,0,0,0,0,2h1.83v1.82a1,1,0,0,0,.37.79Z" style="fill:#f7a7b3;fill-rule:evenodd"/><path d="M11.77,75.41V59.85l7.77,7.78Z" style="fill:#f7a7b3;fill-rule:evenodd"/><path d="M0,54a4,4,0,0,0,4,4H28a4,4,0,0,0,4-4V36a4,4,0,0,0-4-4H11L0,43Z" style="fill:#9951a0;fill-rule:evenodd"/><path d="M13,49c0,2.21.45,4,1,4h1c.55,0,1-1.79,1-4s-.45-4-1-4H14C13.45,45,13,46.79,13,49Zm3,4h2c.55,0,1-1.79,1-4s-.45-4-1-4H16c.55,0,1,1.79,1,4S16.55,53,16,53Zm3,0h2c.55,0,1-1.79,1-4s-.45-4-1-4H19c.55,0,1,1.79,1,4S19.55,53,19,53Zm3,0h2c.55,0,1-1.79,1-4s-.45-4-1-4H22c.55,0,1,1.79,1,4S22.55,53,22,53Z" style="fill:#d9a1c9;fill-rule:evenodd"/><path d="M15,43a1,1,0,0,0,1,1h8a1,1,0,0,0,1-1V38a1,1,0,0,0-1-1H16a1,1,0,0,0-1,1Zm1,0V41h2v2Zm0-3V38h2v2Zm3,3V41h2v2Zm0-3V38h2v2Zm3,3V41h2v2Zm0-3V38h2v2Z" style="fill:#fafbfc;fill-rule:evenodd"/><path d="M0,43,11,32V43Z" style="fill:#d9a1c9;fill-rule:evenodd"/><path d="M6.82,19.54a4,4,0,0,0,0,5.66l17,17a4,4,0,0,0,5.65,0L42.17,29.44a4,4,0,0,0,0-5.65l-12-12H14.59Z" style="fill:#49b749;fill-rule:evenodd"/><path d="M17.42,27.32a1,1,0,0,0,0,1.42l4.95,4.95a1,1,0,0,0,1.42,0L28,29.44l-.71-.7-1.41,1.41-.71-.71L26.62,28l-.71-.71-1.42,1.42-.7-.71,5.65-5.66-2.82-2.83a1,1,0,0,0-1.42,0Zm.71.71,2.12-2.12.71.71-2.12,2.12ZM21,25.2l2.12-2.12.71.71-2.12,2.12Zm2.83-2.83,2.12-2.12.71.71-2.13,2.12Zm-4.25,7.07,2.13-2.12.7.71-2.12,2.12Zm2.83-2.82,2.12-2.13.71.71-2.12,2.12Zm2.83-2.83,2.12-2.12.71.7-2.12,2.12ZM21,30.86l2.12-2.12.71.7-2.12,2.12Zm1.41,1.41,2.12-2.12.71.71L23.08,33Z" style="fill:#fafbfc;fill-rule:evenodd"/><path d="M25.91,25.91a1,1,0,0,0,0,1.41l3.53,3.54a1,1,0,0,0,1.42,0l5-4.95a1,1,0,0,0,0-1.42L32.27,21a1,1,0,0,0-1.41,0ZM28,25.2l.71-.71L32.27,28l-.71.71Zm-.71,2.12.71-.7,2.83,2.82-.71.71Zm5-3.53.71-.71L35.1,25.2l-.71.71Zm-.71,2.12.71-.71,1.42,1.42-.71.7Z" style="fill:#b9d988;fill-rule:evenodd"/><path d="M14.59,11.77H30.15l-7.78,7.77Z" style="fill:#b9d988;fill-rule:evenodd"/><g style="clip-path:url(#i)"><path d="M36,0a4,4,0,0,0-4,4V28a4,4,0,0,0,4,4H54a4,4,0,0,0,4-4V11L47,0Z" style="fill:#2a84c6;fill-rule:evenodd"/><path d="M37.5,13h6a.5.5,0,0,1,.5.5h0a.5.5,0,0,1-.5.5h-6a.5.5,0,0,1-.5-.5h0A.5.5,0,0,1,37.5,13Z" style="fill:#fafbfc;fill-rule:evenodd"/><path d="M37.5,15h6a.5.5,0,0,1,.5.5h0a.5.5,0,0,1-.5.5h-6a.5.5,0,0,1-.5-.5h0A.5.5,0,0,1,37.5,15Z" style="fill:#fafbfc;fill-rule:evenodd"/><path d="M37.5,17h6a.5.5,0,0,1,.5.5h0a.5.5,0,0,1-.5.5h-6a.5.5,0,0,1-.5-.5h0A.5.5,0,0,1,37.5,17Z" style="fill:#fafbfc;fill-rule:evenodd"/><path d="M37.5,20h15a.5.5,0,0,1,.5.5h0a.5.5,0,0,1-.5.5h-15a.5.5,0,0,1-.5-.5h0A.5.5,0,0,1,37.5,20Z" style="fill:#fafbfc;fill-rule:evenodd"/><path d="M37.5,22h15a.5.5,0,0,1,.5.5h0a.5.5,0,0,1-.5.5h-15a.5.5,0,0,1-.5-.5h0A.5.5,0,0,1,37.5,22Z" style="fill:#fafbfc;fill-rule:evenodd"/><path d="M37.5,24h6a.5.5,0,0,1,.5.5h0a.5.5,0,0,1-.5.5h-6a.5.5,0,0,1-.5-.5h0A.5.5,0,0,1,37.5,24Z" style="fill:#fafbfc;fill-rule:evenodd"/><path d="M47,13a1,1,0,0,0-1,1v3a1,1,0,0,0,1,1h5a1,1,0,0,0,1-1V14a1,1,0,0,0-1-1Zm4.5,1a.5.5,0,1,1-.5.5A.5.5,0,0,1,51.5,14Zm-3.16.53a.59.59,0,0,1,.37.18L51,17H47L47.68,15a.63.63,0,0,1,.66-.42Z" style="fill:#a4ddee;fill-rule:evenodd"/><path d="M47,0,58,11H47Z" style="fill:#a4ddee;fill-rule:evenodd"/></g></svg>